<?xml version="1.0" encoding="iso-8859-1"?>
<!-- Uploaded to: SVG Repo, www.svgrepo.com, Generator: SVG Repo Mixer Tools -->
<svg version="1.1" id="Layer_1" xmlns="http://www.w3.org/2000/svg" xmlns:xlink="http://www.w3.org/1999/xlink" 
	 viewBox="0 0 511.981 511.981" xml:space="preserve">
<path style="fill:#965353;" d="M480.886,243.668c0,0-29.906,15.764-21.797,28.881c32.859,53.123,15.703,102.152-193.143,111.434
	C97.617,391.451,39.9,358.483,18.05,344.265c-0.008,0-0.016,0-0.023,0c-1.914-1.813-4.5-2.969-7.352-2.969
	c-5.891,0-10.663,4.78-10.663,10.688c-0.758,29.498,34.327,110.84,63.755,138.651h363.106c0,0,74.623-44.718,84.123-136.651
	C518.478,281.549,480.886,243.668,480.886,243.668z"/>
<path style="opacity:0.1;enable-background:new    ;" d="M46.392,469.292c5.805,8.595,11.695,15.969,17.374,21.344h363.106
	c0,0,11.764-7.063,26.576-21.344H46.392z"/>
<path d="M470.824,299.11c3.516-12.999-0.188-27.163-8.156-41.756c-4.219,4.766-6.688,10.171-3.578,15.194
	C464.683,281.58,468.824,290.486,470.824,299.11z"/>
<path style="fill:#7F4545;" d="M245.315,21.346c-5.89,0-10.663,4.766-10.663,10.671v349.246h21.327V32.017
	C255.979,26.112,251.206,21.346,245.315,21.346z"/>
<g>
	<path style="fill:#F5BA45;" d="M138.663,437.387c-17.647,0-31.999-14.375-31.999-32c0-17.655,14.352-31.998,31.999-31.998
		c17.64,0,31.999,14.343,31.999,31.998C170.662,423.012,156.303,437.387,138.663,437.387z"/>
	<path style="fill:#F5BA45;" d="M245.315,437.231c-17.64,0-31.999-14.375-31.999-31.999c0-17.656,14.359-32,31.999-32
		s32.001,14.344,32.001,32C277.316,422.856,262.955,437.231,245.315,437.231z"/>
	<path style="fill:#F5BA45;" d="M351.984,437.387c-17.656,0-31.998-14.375-31.998-32c0-17.655,14.342-31.998,31.998-31.998
		c17.625,0,31.982,14.343,31.982,31.998C383.967,423.012,369.609,437.387,351.984,437.387z"/>
</g>
<g>
	<path style="fill:#FECD57;" d="M138.663,362.733c-23.562,0-42.663,19.093-42.663,42.654c0,23.563,19.102,42.655,42.663,42.655
		s42.663-19.093,42.663-42.655C181.326,381.826,162.224,362.733,138.663,362.733z M138.663,426.7
		c-11.766,0-21.335-9.563-21.335-21.313c0-11.78,9.569-21.343,21.335-21.343c11.758,0,21.327,9.563,21.327,21.343
		C159.99,417.137,150.421,426.7,138.663,426.7z"/>
	<path style="fill:#FECD57;" d="M245.315,362.577c-23.562,0-42.662,19.094-42.662,42.655s19.101,42.654,42.662,42.654
		s42.671-19.093,42.671-42.654S268.877,362.577,245.315,362.577z M245.315,426.544c-11.757,0-21.327-9.563-21.327-21.312
		c0-11.781,9.57-21.343,21.327-21.343c11.767,0,21.335,9.562,21.335,21.343C266.65,416.981,257.082,426.544,245.315,426.544z"/>
	<path style="fill:#FECD57;" d="M351.984,362.733c-23.563,0-42.67,19.093-42.67,42.654c0,23.563,19.107,42.655,42.67,42.655
		c23.561,0,42.654-19.093,42.654-42.655C394.638,381.826,375.545,362.733,351.984,362.733z M351.984,426.7
		c-11.781,0-21.344-9.563-21.344-21.313c0-11.78,9.563-21.343,21.344-21.343c11.75,0,21.311,9.563,21.311,21.343
		C373.295,417.137,363.734,426.7,351.984,426.7z"/>
</g>
<path style="fill:#A85D5D;" d="M490.636,266.651c0,17.679-14.344,31.99-32,31.99c-17.686,0-31.998-14.312-31.998-31.99
	c0-17.672,14.313-31.999,31.998-31.999C476.293,234.652,490.636,248.979,490.636,266.651z"/>
<g>
	<path style="fill:#FECD57;" d="M362.64,405.232c0,5.874-4.781,10.655-10.656,10.655c-5.906,0-10.688-4.781-10.688-10.655
		c0-5.906,4.781-10.688,10.688-10.688C357.859,394.545,362.64,399.326,362.64,405.232z"/>
	<path style="fill:#FECD57;" d="M255.979,405.232c0,5.874-4.773,10.655-10.664,10.655c-5.89,0-10.663-4.781-10.663-10.655
		c0-5.906,4.773-10.688,10.663-10.688C251.206,394.545,255.979,399.326,255.979,405.232z"/>
	<path style="fill:#FECD57;" d="M149.326,405.387c0,5.876-4.772,10.657-10.663,10.657s-10.664-4.781-10.664-10.657
		c0-5.905,4.773-10.655,10.664-10.655S149.326,399.482,149.326,405.387z"/>
</g>
<rect x="234.65" y="53.341" style="opacity:0.1;enable-background:new    ;" width="21.327" height="10.655"/>
<rect x="234.65" y="326.611" style="opacity:0.1;enable-background:new    ;" width="21.327" height="10.687"/>
<path style="fill:#EC5564;" d="M401.326,136.999c-10.578-28.421-27.686-52.186-50.842-70.669c-1.891-1.5-4.234-2.329-6.656-2.329
	H85.337c-4.063,0-7.766,2.313-9.563,5.953c-1.797,3.625-1.375,7.969,1.086,11.203c34.702,45.373,48.725,100.168,41.687,162.838
	c-5.32,47.396-21.359,81.739-21.516,82.084c-1.772,3.718-1.234,8.155,1.391,11.343c2.055,2.5,5.094,3.905,8.242,3.905
	c0.875,0,1.75-0.124,2.617-0.343c36.382-9.219,78.575-13.905,125.395-13.905c79.998,0,146.432,13.874,147.09,13.998
	c3.016,0.657,6.154-0.062,8.623-1.905c2.25-1.688,3.719-4.188,4.127-6.969c0.201-0.781,0.842-2.969,1.436-4.906
	c4.984-16.78,18.234-61.317,18.297-111.863C414.295,186.512,409.935,160.123,401.326,136.999z"/>
<g style="opacity:0.2;">
	<path style="fill:#FFFFFF;" d="M401.326,136.999c-10.578-28.421-27.686-52.186-50.842-70.669c-1.891-1.5-4.234-2.329-6.656-2.329
		H322.5c2.424,0,4.766,0.829,6.641,2.329c23.172,18.483,40.281,42.248,50.857,70.669c8.609,23.124,12.953,49.514,12.922,78.435
		c-0.063,50.546-13.313,95.083-18.311,111.863c-0.564,1.938-1.219,4.125-1.424,4.906c-0.391,2.563-1.701,4.906-3.686,6.594
		c7.734,1.344,12.094,2.25,12.266,2.28c3.016,0.657,6.154-0.062,8.623-1.905c2.25-1.688,3.719-4.188,4.127-6.969
		c0.201-0.781,0.842-2.969,1.436-4.906c4.984-16.78,18.234-61.317,18.297-111.863C414.295,186.512,409.935,160.123,401.326,136.999z
		"/>
</g>
</svg>